<svg width="178" height="93" viewBox="0 0 178 93" fill="none" xmlns="http://www.w3.org/2000/svg">
<path fill-rule="evenodd" clip-rule="evenodd" d="M30.4943 56.3264C30.0226 56.3449 29.5666 56.5017 29.1833 56.7774C28.7999 57.0531 28.506 57.4354 28.3381 57.877C28.1702 58.3185 28.1357 58.7996 28.2389 59.2606C28.3422 59.7216 28.5786 60.142 28.9188 60.4696C29.259 60.7972 29.6879 61.0174 30.1522 61.103C30.6165 61.1886 31.0957 61.1357 31.5302 60.9509C31.9647 60.7661 32.3353 60.4576 32.596 60.0637C32.8566 59.6698 32.9958 59.208 32.9961 58.7356C33.0004 58.41 32.9379 58.0869 32.8125 57.7865C32.687 57.486 32.5013 57.2145 32.2669 56.9887C32.0324 56.7629 31.7541 56.5876 31.4492 56.4737C31.1443 56.3598 30.8193 56.3096 30.4943 56.3264ZM30.4943 60.4483C30.2582 60.4658 30.0211 60.4344 29.7977 60.356C29.5743 60.2776 29.3694 60.154 29.196 59.9928C29.0225 59.8316 28.8841 59.6363 28.7895 59.4192C28.6949 59.2021 28.646 58.9677 28.646 58.7309C28.646 58.494 28.6949 58.2596 28.7895 58.0425C28.8841 57.8254 29.0225 57.6301 29.196 57.4689C29.3694 57.3077 29.5743 57.1841 29.7977 57.1057C30.0211 57.0273 30.2582 56.9959 30.4943 57.0134C30.7304 56.9959 30.9676 57.0273 31.191 57.1057C31.4144 57.1841 31.6192 57.3077 31.7927 57.4689C31.9662 57.6301 32.1046 57.8254 32.1992 58.0425C32.2938 58.2596 32.3426 58.494 32.3426 58.7309C32.3426 58.9677 32.2938 59.2021 32.1992 59.4192C32.1046 59.6363 31.9662 59.8316 31.7927 59.9928C31.6192 60.154 31.4144 60.2776 31.191 60.356C30.9676 60.4344 30.7304 60.4658 30.4943 60.4483ZM54.788 47.9037H42.6365L44.0096 26.8141L36.1281 47.9037H24.8418L42.7117 0.15332H54.788L53.3584 21.5629L61.3717 0.15332H72.658L54.788 47.9037ZM56.2553 47.9037L74.1252 0.15332H85.4114L67.5415 47.9037H56.2553Z" fill="#434343"/>
<path fill-rule="evenodd" clip-rule="evenodd" d="M23.5447 31.4442C7.76269 49.9646 -7.08816 74.6115 6.05094 85.9515C18.7762 96.9528 34.6804 90.4405 45.5529 86.1021C56.4253 81.7637 176.286 29.6373 176.286 29.6373C177.442 29.0633 177.226 28.3386 175.778 28.6962L45.2425 64.1091C28.7552 68.7392 9.95411 58.6414 23.5447 31.4442Z" fill="#434343"/>
<path fill-rule="evenodd" clip-rule="evenodd" d="M30.9274 58.9054C31.0147 58.9088 31.1018 58.8931 31.1825 58.8595C31.2632 58.8258 31.3356 58.775 31.3947 58.7105C31.4538 58.646 31.4981 58.5694 31.5246 58.4861C31.5511 58.4027 31.5591 58.3146 31.5481 58.2278C31.5481 57.5973 31.1437 57.4373 30.4571 57.4373H29.5166V60.0347H30.1656V58.9242H30.2784L30.871 60.0347H31.6234L30.9274 58.9054ZM30.5041 58.4819H30.1279V57.8702H30.4477C30.6358 57.8702 30.8615 57.8702 30.8615 58.1525C30.8615 58.4348 30.7299 58.4819 30.5041 58.4819ZM143.884 0.00315595C143.412 0.0216093 142.956 0.178435 142.573 0.454124C142.19 0.729812 141.896 1.1122 141.728 1.55372C141.56 1.99524 141.525 2.47641 141.629 2.93737C141.732 3.39834 141.968 3.81876 142.309 4.14634C142.649 4.47392 143.078 4.6942 143.542 4.77978C144.006 4.86537 144.486 4.81248 144.92 4.62769C145.355 4.4429 145.725 4.13438 145.986 3.74049C146.246 3.3466 146.386 2.88472 146.386 2.41232C146.39 2.08672 146.328 1.7637 146.202 1.46323C146.077 1.16276 145.891 0.891227 145.657 0.665424C145.422 0.43962 145.144 0.264344 144.839 0.150433C144.534 0.036522 144.209 -0.0136044 143.884 0.00315595ZM143.884 4.1345C143.545 4.13079 143.214 4.02663 142.933 3.83515C142.653 3.64368 142.435 3.37343 142.307 3.05844C142.18 2.74344 142.149 2.39777 142.217 2.06495C142.286 1.73213 142.451 1.42703 142.693 1.18806C142.934 0.949089 143.241 0.78693 143.574 0.72199C143.907 0.657051 144.252 0.692236 144.566 0.823119C144.879 0.954001 145.147 1.17473 145.335 1.45752C145.524 1.74031 145.624 2.07251 145.624 2.41232C145.629 2.64152 145.588 2.86937 145.502 3.08194C145.416 3.2945 145.288 3.4873 145.125 3.64853C144.962 3.80975 144.768 3.93601 144.555 4.01958C144.341 4.10314 144.113 4.14225 143.884 4.1345Z" fill="#434343"/>
<path fill-rule="evenodd" clip-rule="evenodd" d="M144.317 2.58131C144.404 2.58474 144.491 2.56908 144.572 2.53543C144.653 2.50178 144.725 2.45095 144.784 2.38647C144.843 2.32198 144.887 2.24539 144.914 2.16202C144.94 2.07866 144.948 1.99052 144.937 1.90373C144.937 1.27321 144.533 1.12264 143.846 1.12264H142.906V3.71061H143.555V2.60954H143.668L144.26 3.71061H145.013L144.317 2.58131ZM143.894 2.16723H143.517V1.56494H143.837C144.025 1.56494 144.251 1.56494 144.251 1.83785C144.251 2.11077 144.119 2.16723 143.894 2.16723ZM136.454 8.10545L139.482 0.15332H105.069L93.2463 14.4766L98.7108 0.15332H87.2834L69.5264 47.9037H80.8126L88.3368 27.934L88.8635 47.9037L123.475 47.8284L126.767 38.6435H113.599L117.926 27.0682H128.77L132.099 18.1656H121.312L125.074 8.10545H136.454ZM100.093 44.6946L99.3786 19.8125L116.43 1.07558L100.093 44.6946Z" fill="#434343"/>
</svg>
