<svg width="314" height="71" viewBox="0 0 314 71" fill="none" xmlns="http://www.w3.org/2000/svg">
<path fill-rule="evenodd" clip-rule="evenodd" d="M80.5945 45.0125H87.859C90.6994 45.0125 91.7677 45.9938 91.7677 48.3969C91.7677 50.7119 90.6869 51.6807 87.859 51.6807H80.5945V45.0125ZM69.3459 69.2822H80.6071V59.4183H92.6726C100.654 59.4183 103.532 54.7128 103.532 48.6234C103.532 41.5526 100.578 37.5643 92.5972 37.5643H69.3459V69.2822ZM107.227 37.5517H137.529V45.2767H118.488V49.5418H136.172V57.2794H118.488V61.5445H137.529V69.2822H107.227V37.5517ZM153.503 45.0125H160.768C163.608 45.0125 164.676 45.9938 164.676 48.3969C164.676 50.7119 163.596 51.6807 160.768 51.6807H153.503V45.0125ZM142.242 69.2822H153.503V59.4183H165.556C173.537 59.4183 176.415 54.7128 176.415 48.6234C176.415 41.5526 173.462 37.5643 165.468 37.5643H142.229V69.2822H142.242ZM187.324 55.8074C181.82 54.8764 179.545 51.3158 179.545 46.8745C179.545 38.6463 186.771 36.4319 196.034 36.4319C208.728 36.4319 213.957 40.1183 214.359 46.8242H201.263C201.263 45.5409 200.584 44.7357 199.553 44.2953C198.561 43.8047 197.279 43.6285 196.034 43.6285C192.679 43.6285 191.522 44.5595 191.522 45.8932C191.522 46.7865 191.874 47.3652 192.993 47.5414L206.453 49.7683C212.122 50.6993 215.641 53.6308 215.641 59.0157C215.641 66.7533 209.973 70.3893 197.316 70.3893C188.657 70.3893 179.193 69.0557 179.155 59.7202H192.729C192.767 60.7897 193.131 61.4942 193.923 61.9849C194.765 62.4252 195.997 62.6517 197.756 62.6517C201.275 62.6517 202.23 61.5823 202.23 60.0725C202.23 59.1415 201.715 58.2104 200.194 57.9462L187.324 55.8074ZM219.298 37.5517H230.559V69.2822H219.298V37.5517ZM272.286 56.9271C271.57 61.1042 270.288 64.476 267.498 66.791C264.745 69.106 260.434 70.3893 253.559 70.3893C246.735 70.3893 234.079 69.8609 234.079 53.4169C234.079 36.9729 246.735 36.4445 253.559 36.4445C260.346 36.4445 270.803 37.4259 272.286 49.9948H259.592C259.278 47.7301 257.908 44.4337 253.559 44.4337C248.959 44.4337 246.056 46.9626 246.056 53.4169C246.056 59.8586 248.897 62.3875 253.006 62.3875C256.563 62.3875 258.675 60.7393 259.592 56.9271H272.286ZM287.016 53.4169C287.016 46.9752 289.932 44.4337 294.519 44.4337C299.107 44.4337 302.023 46.9626 302.023 53.4169C302.023 59.8586 299.107 62.3875 294.519 62.3875C289.932 62.3875 287.016 59.8586 287.016 53.4169ZM275.039 53.4169C275.039 69.8609 287.695 70.3893 294.519 70.3893C301.344 70.3893 314 69.8609 314 53.4169C314 36.9729 301.344 36.4445 294.519 36.4445C287.695 36.4445 275.039 36.9729 275.039 53.4169ZM52.3284 37.8662C53.0574 22.6426 39.9361 5.50666 22.064 3.38039L22.0891 3.1665C39.7098 3.1665 53.2208 19.4973 53.2208 32.3807C53.2082 35.0605 52.9945 36.7213 52.6175 37.9291L52.3284 37.8662ZM51.2601 39.8038C50.0913 41.238 48.6082 42.6849 46.8863 44.0563C43.7066 25.7502 30.2711 9.7592 20.782 5.07889L20.5809 5.21728C30.1328 13.0681 41.5197 28.3043 45.9563 44.7609C43.694 46.4216 41.2557 47.8182 38.6792 48.9379C29.6678 38.6463 21.2596 18.8053 18.5574 6.21122L18.2809 6.29929C18.3437 18.5285 27.0159 39.2753 37.5858 49.3908C35.1601 50.347 32.6465 51.0516 30.07 51.4668C19.9399 47.4533 12.7257 34.5824 12.7257 21.3845C12.7257 12.7787 15.3525 7.45679 15.8552 6.3622L15.6416 6.27413C15.0257 7.20516 11.1924 12.5271 11.1924 21.8122C11.1924 36.7213 18.5323 48.1075 28.2853 51.6932C24.8038 52.0833 21.2722 51.9071 17.841 51.2026L17.7656 51.429C18.8088 51.8191 22.3405 53.3037 27.7448 53.3037C39.9486 53.3037 48.206 45.717 51.524 39.9422L51.2601 39.8038Z" fill="#434343"/>
<path fill-rule="evenodd" clip-rule="evenodd" d="M26.4999 0C17.2496 0 6.39062 6.68076 6.39062 12.7954C6.39062 15.1607 8.55237 17.1611 13.0267 17.1611C23.4081 17.1611 33.048 10.0274 33.048 4.46642C33.048 1.54752 30.2452 0 26.4999 0ZM30.195 4.30286C30.195 8.98317 21.2212 14.6952 13.7179 14.6952C10.3999 14.6952 8.61521 13.3867 8.61521 11.2353C8.61521 6.49204 17.6895 0.868122 24.7278 0.868122C29.3026 0.868122 30.195 3.20828 30.195 4.30286Z" fill="#434343"/>
<path fill-rule="evenodd" clip-rule="evenodd" d="M2.70847 15.6265C2.44454 16.0795 1.40137 18.1177 1.40137 20.2062C1.40137 24.0813 5.32268 27.6922 12.5243 27.6922C26.3871 27.6922 42.3866 17.476 42.3866 8.00217C42.3866 3.74963 38.3647 1.43464 35.5746 0.956543L35.5243 1.1201C36.3915 1.39689 39.5713 2.88151 39.5713 6.66853C39.5713 14.2174 25.4319 24.5091 11.3555 24.5091C5.96366 24.5091 2.57022 21.8418 2.57022 17.9667C2.57022 16.7337 2.82158 15.9285 2.89699 15.702L2.70847 15.6265Z" fill="#434343"/>
<path fill-rule="evenodd" clip-rule="evenodd" d="M48.1051 8.71924C48.4822 9.00861 50.7696 10.9084 50.7696 14.5193C50.7696 26.7988 31.5527 38.877 14.5604 38.877C4.43032 38.8644 -0.194815 33.857 0.00627802 29.4032H0.182234C0.58442 31.7182 3.86474 35.8449 12.738 35.8449C29.7554 35.8449 48.7461 23.3515 48.7461 12.4056C48.7461 10.531 48.2308 9.36089 47.9543 8.83247L48.1051 8.71924Z" fill="#434343"/>
<path fill-rule="evenodd" clip-rule="evenodd" d="M54.527 20.1807C54.6024 20.4449 55.0172 21.615 55.0172 23.4644C55.0172 37.1279 35.5741 48.8161 18.6571 48.8161C9.9473 48.8161 5.41014 44.5887 4.44238 42.8651L4.5932 42.7518C7.00631 44.8655 11.7446 46.4634 17.2872 46.4634C32.2309 46.4634 54.5145 35.0897 54.3134 20.2436L54.527 20.1807Z" fill="#434343"/>
</svg>
