<svg width="17" height="18" viewBox="0 0 17 18" fill="none" xmlns="http://www.w3.org/2000/svg">
<path d="M15.4375 0.5625C16.0684 0.5625 16.625 1.11914 16.625 1.78711V16C16.625 16.668 16.0684 17.1875 15.4375 17.1875H1.15039C0.519531 17.1875 0 16.668 0 16V1.78711C0 1.11914 0.519531 0.5625 1.15039 0.5625H15.4375ZM5.00977 14.8125V6.9082H2.56055V14.8125H5.00977ZM3.78516 5.79492C4.56445 5.79492 5.19531 5.16406 5.19531 4.38477C5.19531 3.60547 4.56445 2.9375 3.78516 2.9375C2.96875 2.9375 2.33789 3.60547 2.33789 4.38477C2.33789 5.16406 2.96875 5.79492 3.78516 5.79492ZM14.25 14.8125V10.4707C14.25 8.35547 13.7676 6.68555 11.2812 6.68555C10.0938 6.68555 9.27734 7.35352 8.94336 7.98438H8.90625V6.9082H6.56836V14.8125H9.01758V10.916C9.01758 9.87695 9.20312 8.875 10.502 8.875C11.7637 8.875 11.7637 10.0625 11.7637 10.9531V14.8125H14.25Z" fill="black"/>
</svg>
