<svg id="Layer_1" data-name="Layer 1" xmlns="http://www.w3.org/2000/svg" viewBox="0 0 182 43.4">
  <defs>
    <style>
      .cls-1 {
        fill: #00d3a8;
      }
      @keyframes blink {
        0% {opacity: 0}
        49%{opacity: 0}
        50% {opacity: 1}
      }

      .blink{animation: blink 1s infinite;}
    </style>
  </defs>
  <g>
    <path class="cls-1" d="M153.8,16.7h4.7V10.3h-4.7v-7h-6.6V6.4c0,2.2-1.2,3.9-3.7,3.9h-1.2v6.4h4.2V27c0,4.8,3,7.7,8,7.7a8.3,8.3,0,0,0,3.8-.7V27.9a12.25,12.25,0,0,1-1.9.2c-1.6,0-2.7-.5-2.7-2.5Z"/>
    <path class="cls-1" d="M137.4,17.2a16.41,16.41,0,0,1,2.3.2V10.2a6.15,6.15,0,0,0-1.9-.2c-1.9,0-5,.8-6.2,3.5V10.3h-7.1v24h7.3V23.7c.1-4.7,2.7-6.5,5.6-6.5Z"/>
    <path class="cls-1" d="M118.3,30.5V18.8c0-4.9-2.9-9.3-10.6-9.3-7,0-10.2,4.5-10.5,8l6.4,1.3a3.81,3.81,0,0,1,4.1-3.5c2.3,0,3.5,1.2,3.5,2.6,0,.8-.4,1.5-1.7,1.6l-5.6.9c-4,.6-7.1,3-7.1,7.2,0,3.8,3,7.3,8.3,7.3,3.2,0,5.5-1.3,6.8-3.4a8.17,8.17,0,0,0,.1,2.7h6.6A23.08,23.08,0,0,1,118.3,30.5Zm-11.5-.9c-2,0-2.9-1.2-2.9-2.5,0-1.7,1.2-2.4,2.7-2.7l4.5-.7.1,1.1C111.2,28.5,109,29.6,106.8,29.6Z"/>
    <path class="cls-1" d="M82.3,9.7c-3.4,0-6,1.5-7,3V10.2H68.2V43.4h7.3V32.3c1.1,1.4,3.4,2.4,6.5,2.4,6.7,0,11.4-5.2,11.4-12.5S89.2,9.7,82.3,9.7ZM80.7,28.2c-2.9,0-5.4-2-5.4-6s2.6-5.9,5.4-5.9,5.5,1.9,5.5,5.9S83.6,28.2,80.7,28.2Z"/>
    <path class="cls-1" d="M52.3,9.7c-3.4,0-6,1.5-7,3V10.2H38.2V43.4h7.3V32.3c1.1,1.4,3.4,2.4,6.5,2.4,6.7,0,11.4-5.2,11.4-12.5S59.2,9.7,52.3,9.7ZM50.7,28.2c-2.9,0-5.4-2-5.4-6s2.6-5.9,5.4-5.9,5.5,1.9,5.5,5.9S53.6,28.2,50.7,28.2Z"/>
    <path class="cls-1" d="M21.7,0H12.9L0,34.2H8l2.5-6.9H23.7l2.5,6.9h8.3ZM13,20.3,17.2,8.5l4.1,11.8Z"/>
    <rect class="cls-1 blink" x="162" y="28.1" width="19.2" height="6.4"/>
  </g>
</svg>
